PathFileType	4	(X/Y/Z)	D:\TRACE\spot_10-12-23\spot_arm_motion_2_1-platform.trc
DataRate	CameraRate	NumFrames	NumMarkers	Units	OrigDataRate	OrigDataStartFrame	OrigNumFrames
100.00	100.00	      35	5	mm	100.00	4376	      7000
Frame#	Time	Left_Front			Right_Front			Left_Aft			Right_Aft			Post			
		X1	Y1	Z1	X2	Y2	Z2	X3	Y3	Z3	X4	Y4	Z4	X5	Y5	Z5	

4376	43.750	-830.99451	-37.51843	-650.70245	741.67426	-33.00470	-643.60632	-748.17468	34.56019	485.06335	669.11761	44.53136	570.91400	-48.06178	677.88763	-1015.70789	
4377	43.760	-830.97083	-38.82451	-650.75818	741.77423	-33.85220	-643.79132	-748.28363	35.27508	484.75214	669.27777	45.31142	570.56842	-47.59072	676.43042	-1017.07172	
4378	43.770	-831.00214	-39.70876	-651.02808	741.78278	-34.90151	-644.06140	-748.15820	35.87434	484.41257	669.20850	46.11850	570.38000	-47.89018	674.95813	-1018.21191	
4379	43.780	-831.12567	-40.44156	-651.08228	741.61578	-35.88194	-643.98871	-747.97803	36.37710	484.49863	669.05823	46.84459	569.97205	-47.96599	673.32367	-1019.53119	
4380	43.790	-831.08142	-41.55982	-651.13702	741.74408	-36.73686	-644.27319	-748.14929	37.24499	484.26962	669.08032	47.56760	569.67395	-47.67161	672.06006	-1020.55652	
4381	43.800	-830.75079	-42.53580	-651.36877	741.97021	-37.73288	-644.36548	-748.18457	37.82418	483.72919	669.17871	48.14232	569.42401	-47.43534	670.45392	-1021.94800	
4382	43.810	-830.63226	-43.28043	-651.61255	742.08521	-38.60442	-644.56049	-747.88385	38.39213	483.43927	669.44696	48.95285	569.25323	-47.52672	669.02100	-1023.12848	
4383	43.820	-830.66705	-44.12506	-651.54346	742.44019	-39.55710	-644.73712	-747.58734	38.92490	483.07288	669.89935	49.67526	568.93561	-47.25251	667.96417	-1024.22717	
4384	43.830	-830.09235	-45.36628	-651.77655	742.80890	-40.42097	-644.95892	-747.11377	39.40332	482.89871	670.17267	50.35312	568.78436	-46.81480	666.36700	-1025.39709	
4385	43.840	-829.58960	-46.08131	-652.05511	743.02655	-41.02393	-645.04785	-746.79315	40.05297	482.64694	670.42444	51.04625	568.53247	-46.71222	665.41534	-1025.81531	
4386	43.850	-829.29700	-46.70893	-652.23309	743.17621	-41.94492	-645.24750	-746.65137	40.54486	482.45596	670.69720	51.59826	568.28088	-46.03424	663.82831	-1027.26074	
4387	43.860	-828.83551	-47.67258	-652.49615	743.48749	-42.92945	-645.23975	-746.23730	41.20726	482.22473	670.98846	52.24347	567.97791	-45.56385	662.67255	-1028.26404	
4388	43.870	-828.28241	-48.70333	-652.58038	743.83270	-43.48114	-645.41107	-745.77032	41.64732	482.09668	671.58990	52.90772	567.67072	-45.41086	661.46594	-1029.25171	
4389	43.880	-827.99579	-49.35017	-652.51166	744.05011	-43.90878	-645.55255	-745.63300	41.93060	481.90982	672.06897	53.30635	567.58514	-45.25574	660.41394	-1030.37244	
4390	43.890	-827.90778	-49.62248	-652.53149	744.88940	-44.71396	-645.59100	-745.12274	42.49801	481.66278	672.49933	53.77303	567.45831	-44.76732	659.61908	-1031.19971	
4391	43.900	-827.38562	-50.26214	-652.70319	745.29767	-45.43063	-645.69165	-744.48248	42.72929	481.75571	672.83740	54.41856	567.27710	-44.09686	658.29456	-1032.03870	
4392	43.910	-826.91150	-51.06916	-652.75305	745.66144	-45.99135	-645.93701	-744.28375	43.25063	481.22318	673.18677	54.91952	567.10516	-43.76873	657.51074	-1032.78186	
4393	43.920	-826.24585	-51.79028	-652.91040	746.12274	-46.55080	-645.98718	-743.76599	43.61367	481.33011	673.68787	55.45058	566.95325	-43.22911	656.48798	-1033.71399	
4394	43.930	-825.97687	-51.94940	-653.01831	746.57263	-47.07206	-646.11279	-743.17267	44.13787	481.27951	674.11090	55.79013	566.76788	-42.77682	655.68835	-1034.32275	
4395	43.940	-825.63226	-52.27193	-653.05542	746.88922	-47.55883	-646.31189	-742.78229	44.43839	480.79080	674.62323	56.12458	566.63062	-41.83970	655.19714	-1035.17236	
4396	43.950	-825.11383	-52.68920	-653.09375	747.23645	-48.08960	-646.39594	-742.25018	44.68312	480.67340	675.04980	56.44362	566.46118	-41.69442	654.06738	-1035.82825	
4397	43.960	-824.31976	-53.56442	-653.21759	747.85632	-48.50527	-646.33459	-741.66937	45.05764	480.48505	674.84076	56.57318	566.43701	-40.94919	653.59399	-1036.69617	
4398	43.970	-823.61511	-54.12604	-653.37183	748.66272	-49.10614	-646.21204	-741.22028	45.11744	480.39911	675.48602	57.08752	566.37811	-40.65420	652.99500	-1037.18994	
4399	43.980	-823.22906	-54.28474	-653.45837	749.28473	-49.40606	-646.24585	-740.72021	45.31925	480.24841	676.16522	57.40596	566.23529	-40.08533	652.40564	-1037.59351	
4400	43.990	-822.86444	-54.39028	-653.51123	749.68262	-49.60154	-646.35413	-740.02991	45.64043	480.21848	676.80518	57.61838	566.08679	-39.34291	651.98383	-1038.17029	
4401	44.000	-822.16266	-54.78513	-653.40851	750.22498	-49.90033	-646.39246	-739.45752	45.73507	480.16943	677.56335	57.80870	565.83331	-38.68657	651.58929	-1038.68848	
4402	44.010	-821.48010	-55.06595	-653.31500	750.93298	-50.23456	-646.43329	-738.81378	45.79257	480.04828	678.46259	58.03136	565.59906	-37.95488	651.11346	-1039.06262	
4403	44.020	-820.91656	-55.38110	-653.30377	751.61530	-50.47561	-646.43390	-738.20984	46.00597	480.00452	679.13959	58.16269	565.66541	-37.24244	650.53912	-1039.70959	
4404	44.030	-820.33752	-55.67259	-653.26746	752.09760	-50.63013	-646.52704	-737.53497	46.13572	480.02768	680.04364	58.38722	565.66931	-36.92255	650.32153	-1039.97791	
4405	44.040	-819.35779	-56.12601	-653.39612	752.60870	-50.70906	-646.63605	-736.90198	46.22758	479.97705	680.41870	58.35749	565.64807	-36.41873	650.09088	-1040.17993	
4406	44.050	-818.63745	-56.05198	-653.53632	753.47827	-50.75756	-646.74237	-736.21539	46.29669	479.94244	681.00732	58.45002	565.48627	-35.54235	649.92676	-1040.45764	
4407	44.060	-818.17059	-56.08348	-653.40552	754.37164	-50.61124	-646.55078	-735.40118	46.45717	479.93027	681.88135	58.61480	565.36700	-34.84889	649.78931	-1040.73279	
4408	44.070	-817.50903	-55.93410	-653.44098	755.02081	-50.50948	-646.55054	-734.82892	46.50845	479.86786	682.69720	58.68604	565.42822	-33.96672	649.62024	-1040.82422	
4409	44.080	-816.70996	-55.97016	-653.49280	755.80853	-50.66487	-646.55103	-734.20490	46.46515	479.80209	683.11115	58.69567	565.47125	-33.18901	649.48895	-1040.65979	
4410	44.090	-816.11786	-55.88885	-653.55548	756.54858	-50.71661	-646.71423	-733.33112	46.55891	479.84369	683.97284	58.68429	565.46283	-32.64161	649.56000	-1040.59314	
